<?xml version="1.0" standalone="no"?>
<!DOCTYPE svg PUBLIC "-//W3C//DTD SVG 20010904//EN"
 "http://www.w3.org/TR/2001/REC-SVG-20010904/DTD/svg10.dtd">
<svg version="1.0" xmlns="http://www.w3.org/2000/svg"
 width="463.000000pt" height="163.000000pt" viewBox="0 0 463.000000 163.000000"
 preserveAspectRatio="xMidYMid meet">

<g transform="translate(0.000000,163.000000) scale(0.100000,-0.100000)"
fill="#000000" stroke="none">
<path d="M688 1583 c-36 -39 -80 -131 -122 -255 -19 -59 -56 -141 -81 -183
-25 -42 -45 -80 -45 -85 0 -4 -31 -48 -69 -97 -132 -171 -252 -257 -288 -207
-19 26 -16 101 5 132 32 47 34 52 17 52 -25 0 -75 -88 -75 -133 0 -48 27 -96
58 -104 33 -8 89 13 144 53 55 40 156 157 199 231 49 83 59 86 59 16 0 -50 4
-65 25 -87 20 -21 33 -26 75 -26 28 0 67 7 87 15 43 18 43 18 43 2 0 -8 -9
-22 -21 -33 -29 -26 -55 -80 -64 -131 -16 -99 78 -293 164 -337 14 -8 43 -19
64 -24 33 -9 37 -9 26 4 -6 8 -18 14 -25 14 -22 0 -91 75 -118 128 -39 76 -59
159 -52 210 8 62 41 113 152 242 98 113 167 176 314 283 91 66 109 99 59 105
-34 4 -114 -57 -259 -197 -110 -107 -233 -203 -293 -229 -39 -17 -93 -15 -111
4 -21 21 -21 123 0 195 9 30 58 140 110 245 93 189 103 214 85 214 -5 0 -16 2
-23 5 -8 3 -25 -7 -40 -22z"/>
<path d="M3432 1281 c-43 -28 -112 -97 -112 -111 0 -4 -7 -13 -15 -20 -9 -7
-40 -65 -70 -129 -30 -64 -61 -127 -68 -141 -13 -25 -103 -70 -182 -90 -61
-15 -69 -24 -70 -74 0 -46 -15 -73 -34 -62 -6 4 -8 25 -5 54 l6 47 -25 -26
c-27 -28 -42 -78 -32 -109 23 -73 139 -24 165 69 6 22 6 39 0 46 -15 18 -1 25
44 25 23 0 55 4 72 9 28 8 33 6 43 -15 15 -34 74 -42 161 -22 7 2 13 -11 15
-32 2 -22 12 -42 30 -57 32 -28 61 -31 50 -5 -15 35 -16 60 -5 100 9 36 21 49
83 91 97 66 166 137 242 252 83 124 92 144 75 164 -7 8 -18 15 -26 15 -51 0
-269 -215 -364 -360 -73 -112 -89 -128 -142 -142 -51 -13 -78 -2 -78 32 0 10
57 76 128 147 192 193 267 319 215 359 -27 20 -54 17 -101 -15z m54 -57 c-24
-62 -246 -319 -246 -285 0 20 45 96 104 174 64 86 162 162 142 111z m176 -145
c-20 -27 -43 -61 -50 -74 -13 -24 -132 -121 -132 -107 1 23 187 232 207 232 7
0 -4 -23 -25 -51z"/>
<path d="M2640 1219 c-77 -25 -106 -48 -131 -107 -24 -56 -24 -93 1 -120 25
-26 32 -27 70 -7 51 26 34 -1 -57 -96 -143 -149 -343 -288 -343 -239 0 6 11
22 25 36 28 28 25 44 -6 44 -43 0 -88 -38 -89 -75 -1 -71 84 -88 166 -32 68
45 217 173 291 249 62 64 193 249 193 272 0 8 -8 16 -19 19 -13 3 -39 -15 -87
-59 -78 -73 -99 -81 -89 -31 12 53 41 84 103 107 48 19 72 21 152 18 141 -7
162 -26 120 -107 -29 -57 -90 -104 -222 -172 -145 -74 -173 -104 -172 -188 1
-103 74 -209 157 -232 58 -15 79 -8 42 16 -75 46 -126 133 -129 216 -2 70 21
94 157 164 176 91 228 138 247 222 10 44 -3 64 -65 95 -61 32 -228 35 -315 7z"/>
<path d="M4530 1143 c-18 -5 -123 -136 -200 -248 -44 -64 -62 -79 -136 -116
-56 -28 -94 -68 -94 -99 0 -7 9 -25 21 -41 27 -38 64 -38 110 1 l36 29 19 -20
c37 -41 93 -62 147 -55 49 7 134 43 124 53 -3 2 -15 0 -26 -7 -31 -16 -139 -2
-162 21 -32 32 -34 68 -10 139 24 69 127 225 193 291 26 27 33 40 25 48 -11
11 -21 12 -47 4z m-303 -409 c4 -13 -34 -64 -48 -64 -14 0 -11 33 7 58 16 23
35 25 41 6z"/>
<path d="M1963 994 c-8 -23 20 -47 46 -39 23 7 27 25 9 43 -17 17 -48 15 -55
-4z"/>
<path d="M3825 766 c-33 -24 -71 -56 -84 -70 -13 -14 -27 -26 -31 -26 -11 0
-21 30 -14 41 9 15 -6 48 -27 59 -14 8 -29 6 -61 -10 -83 -39 -119 -86 -97
-126 17 -32 42 -38 83 -19 32 15 36 15 59 0 22 -14 29 -14 60 -2 19 8 64 40
101 71 64 55 81 62 51 22 -38 -50 7 -86 53 -43 25 22 64 47 75 47 3 0 4 -15 3
-32 -1 -27 3 -34 21 -36 27 -4 43 28 43 83 0 28 -4 36 -25 41 -13 3 -38 1 -55
-4 -27 -10 -31 -8 -42 16 -20 41 -46 38 -113 -12z m-194 -56 c-30 -26 -49 -26
-26 0 10 11 25 20 34 20 12 -1 10 -5 -8 -20z"/>
<path d="M1134 771 c-50 -31 -74 -68 -74 -117 0 -35 5 -47 24 -59 28 -19 47
-12 86 29 l24 27 16 -33 c13 -28 21 -34 54 -36 30 -3 49 4 91 32 l53 35 16
-24 c22 -33 47 -38 97 -20 24 9 51 19 60 21 10 3 27 -5 42 -20 34 -33 63 -39
117 -23 43 13 46 12 84 -15 29 -20 51 -28 83 -28 l44 0 -53 43 c-45 37 -53 48
-53 77 0 26 -6 37 -24 46 -38 19 -66 3 -66 -37 0 -29 -4 -34 -33 -43 -26 -7
-36 -5 -52 9 -12 11 -18 26 -15 35 16 50 -42 69 -77 25 -24 -31 -75 -58 -93
-51 -8 3 -15 24 -17 53 -3 44 -5 48 -30 51 -16 2 -28 -1 -28 -7 0 -17 -71 -91
-103 -107 -16 -9 -33 -12 -37 -7 -4 4 -10 34 -14 66 -3 32 -10 67 -16 77 -14
26 -65 26 -106 1z m74 -44 c2 -10 -3 -17 -11 -17 -8 0 -26 -18 -41 -40 -33
-50 -52 -44 -31 8 25 60 75 89 83 49z"/>
<path d="M1460 240 c0 -87 4 -140 10 -140 6 0 10 28 10 63 0 71 17 97 62 97
32 0 48 -34 49 -108 0 -49 2 -53 10 -32 14 34 4 118 -17 141 -21 23 -52 24
-82 3 l-22 -15 0 65 c0 37 -4 66 -10 66 -6 0 -10 -53 -10 -140z"/>
<path d="M3230 240 c0 -87 4 -140 10 -140 6 0 10 28 10 63 0 71 17 97 63 97
20 0 28 -7 37 -35 6 -19 10 -53 9 -75 -2 -21 0 -42 4 -46 4 -4 7 26 7 68 0 60
-4 78 -18 91 -23 21 -51 22 -80 1 l-22 -15 0 65 c0 37 -4 66 -10 66 -6 0 -10
-53 -10 -140z"/>
<path d="M1960 300 c0 -14 -8 -24 -22 -28 -21 -5 -21 -6 -2 -12 16 -6 20 -19
24 -81 l5 -74 35 -2 c29 -2 31 -1 10 5 -23 7 -25 13 -28 79 -3 68 -2 72 20 76
l23 4 -22 2 c-16 1 -23 7 -23 20 0 11 -4 23 -10 26 -5 3 -10 -4 -10 -15z"/>
<path d="M1248 264 c-16 -8 -28 -10 -28 -4 0 5 -4 10 -10 10 -6 0 -10 -48 -10
-125 0 -77 4 -125 10 -125 6 0 10 23 10 50 0 47 11 63 25 40 3 -5 23 -10 44
-10 53 0 86 36 85 93 -2 71 -63 106 -126 71z m97 -35 c20 -38 12 -83 -18 -104
-29 -20 -49 -19 -81 6 -55 43 -21 129 51 129 26 0 36 -6 48 -31z"/>
<path d="M1735 268 c-32 -19 -44 -40 -45 -81 0 -78 91 -117 145 -62 68 68 -18
190 -100 143z m85 -28 c28 -28 26 -81 -4 -109 -27 -26 -62 -24 -90 5 -21 20
-20 83 1 106 21 24 68 23 93 -2z"/>
<path d="M2134 268 c-48 -23 -59 -104 -19 -143 24 -25 86 -34 111 -17 20 13
34 50 34 87 0 66 -64 103 -126 73z m93 -30 c31 -29 30 -72 -2 -103 -30 -30
-54 -31 -89 -4 -19 15 -26 30 -26 55 0 66 69 97 117 52z"/>
<path d="M2376 259 c-37 -29 -48 -61 -35 -99 11 -30 53 -60 84 -60 9 0 29 7
45 15 26 13 30 14 30 1 0 -23 -20 -70 -33 -78 -21 -13 -84 -9 -97 7 -7 8 -16
12 -22 9 -16 -10 12 -33 48 -40 47 -9 81 2 100 31 19 30 32 225 15 225 -6 0
-11 -5 -11 -10 0 -6 -13 -4 -30 5 -39 20 -62 19 -94 -6z m104 -26 c37 -47 4
-113 -55 -113 -39 0 -68 30 -68 70 0 68 81 96 123 43z"/>
<path d="M2642 264 c-12 -8 -22 -10 -22 -5 0 6 -4 11 -10 11 -6 0 -10 -35 -10
-85 0 -50 4 -85 10 -85 6 0 10 27 10 60 0 62 21 100 55 100 8 0 15 5 15 10 0
15 -22 12 -48 -6z"/>
<path d="M2773 270 c-36 -15 -27 -20 26 -13 43 5 50 3 60 -16 17 -30 6 -41
-40 -41 -62 0 -99 -48 -63 -84 18 -19 75 -21 92 -4 10 10 15 10 22 -2 7 -10
10 10 10 62 0 68 -3 79 -22 92 -25 18 -52 19 -85 6z m91 -89 c12 -18 -13 -59
-38 -65 -30 -7 -66 8 -66 29 0 31 88 62 104 36z"/>
<path d="M3012 264 c-12 -8 -22 -10 -22 -5 0 6 -4 11 -10 11 -6 0 -10 -48 -10
-125 0 -77 4 -125 10 -125 6 0 10 23 10 50 0 47 11 63 25 40 10 -17 81 -11
105 8 13 11 23 33 27 59 5 37 2 46 -25 73 -34 34 -74 39 -110 14z m98 -24 c30
-30 27 -83 -6 -109 -34 -26 -54 -26 -88 0 -52 41 -23 129 44 129 17 0 39 -9
50 -20z"/>
<path d="M3505 268 c-33 -18 -45 -40 -45 -83 0 -55 31 -85 86 -85 22 0 45 5
52 12 21 21 13 27 -15 12 -38 -19 -59 -18 -83 6 -37 37 -26 49 48 52 l67 3 -3
30 c-5 53 -59 80 -107 53z m79 -24 c32 -32 20 -44 -44 -44 -64 0 -73 9 -43 42
20 22 66 24 87 2z"/>
</g>
</svg>
